<?xml version="1.0" encoding="UTF-8" standalone="no" ?>
<!DOCTYPE svg PUBLIC "-//W3C//DTD SVG 1.1//EN" "http://www.w3.org/Graphics/SVG/1.1/DTD/svg11.dtd">
<svg xmlns="http://www.w3.org/2000/svg" xmlns:xlink="http://www.w3.org/1999/xlink" version="1.1" width="1959.8086124401918" height="1024" viewBox="0 0 1959.8086124401918 1024" xml:space="preserve">
<desc>Created with Fabric.js 5.3.0</desc>
<defs>
</defs>
<g transform="matrix(1 0 0 1 1396.7829108223 1022.8020729753)" id="RCnJAVOSn0pTNbJ8sqzRN"  >
<path style="stroke: rgb(0,0,0); stroke-width: 1; stroke-dasharray: none; stroke-linecap: butt; stroke-dashoffset: 0; stroke-linejoin: miter; stroke-miterlimit: 4; fill: rgb(255,255,255); fill-opacity: 0; fill-rule: nonzero; opacity: 1;"  transform=" translate(0, 0)" d="M 0 0" stroke-linecap="round" />
</g>
<g transform="matrix(1 0 0 1 1528.5548835414 1025.9106936044)" id="l8JgkqkefJgK7vHApdPQt"  >
<path style="stroke: rgb(0,0,0); stroke-width: 1; stroke-dasharray: none; stroke-linecap: round; stroke-dashoffset: 0; stroke-linejoin: round; stroke-miterlimit: 10; fill: none; fill-rule: nonzero; opacity: 1;"  transform=" translate(-1528.5548835414, -1025.9106936044)" d="M 1528.553883541372 1025.9106936044268 L 1528.555883541372 1025.9106936044268" stroke-linecap="round" />
</g>
<g transform="matrix(1 0 0 1 1406.36632702 1023.3020729753)" id="tsdsYlbqU0M2sF-P_koe5"  >
<path style="stroke: rgb(0,0,0); stroke-width: 1; stroke-dasharray: none; stroke-linecap: butt; stroke-dashoffset: 0; stroke-linejoin: miter; stroke-miterlimit: 4; fill: rgb(255,255,255); fill-opacity: 0; fill-rule: nonzero; opacity: 1;"  transform=" translate(0, 0)" d="M 0 0" stroke-linecap="round" />
</g>
<g transform="matrix(1.009586409 0 0 1 1612.1428469609 758.8488133666)" id="VCIds7C8F1BpuqnVy69uv"  >
<path style="stroke: rgb(0,0,0); stroke-width: 0; stroke-dasharray: none; stroke-linecap: butt; stroke-dashoffset: 0; stroke-linejoin: miter; stroke-miterlimit: 4; fill: rgb(76,76,191); fill-rule: nonzero; opacity: 1;"  transform=" translate(0, 0)" d="M -444.72907 303.79779 C -444.72907 303.79779 -296.38478999999995 181.82426000000004 -235.4645 117.71152000000001 C -215.24193 96.42921000000001 -109.69241999999998 45.06965000000001 -53.23300999999998 41.37802000000001 C -11.208249999999978 38.630210000000005 23.625310000000027 40.62823000000001 49.868110000000016 41.37802000000001 C 157.56433 44.45505000000001 146.25351 -74.32794 169.77726 -174.40301 C 182.88584 -230.16971 230.00469 -280.64378999999997 268.58484 -302.07721 C 376.39826999999997 -361.97355999999996 386.59353999999996 -276.24557999999996 379.40598 -283.43314 C 372.21842 -290.6207 444.72907 75.60626000000002 444.72907 75.60626000000002 L 422.2176 260.72275 L 323.16714 314.36621 L -62.52936 323.45712000000003 z" stroke-linecap="round" />
</g>
<g transform="matrix(1 0 0 1 72.8480496997 262.6237799845)" id="U-oB3IeVWoUVsWOKLBz6M"  >
<path style="stroke: rgb(0,0,0); stroke-width: 0; stroke-dasharray: none; stroke-linecap: butt; stroke-dashoffset: 0; stroke-linejoin: miter; stroke-miterlimit: 4; fill: rgb(76,76,191); fill-rule: nonzero; opacity: 1;"  transform=" translate(0, 0)" d="M 152.22498 -261.47443 C 152.22498 -261.47443 177.68635999999998 -127.97492999999997 90.84425999999999 -91.13281999999998 C 37.59489999999999 -68.54217999999997 46.61690999999999 -49.029519999999984 55.768559999999994 -26.57868999999998 L 55.768559999999994 -26.57868999999998 C 59.66951999999999 -17.00885999999998 61.788709999999995 -6.806679999999979 62.02168999999999 3.525060000000021 L 62.02168999999999 3.525060000000021 L 62.02168999999999 3.525060000000021 C 61.05604999999999 63.33928000000002 41.744119999999995 121.41401000000002 6.697669999999995 169.89513000000002 C 2.6666699999999954 175.47137000000004 -0.4937400000000052 182.71618 -2.6622300000000045 188.52667000000002 C -3.2387100000000046 190.07136000000003 -3.2404000000000046 190.29099000000002 -3.4908200000000047 191.17026 L -3.4908200000000047 191.17026 C -12.670450000000004 223.40108 -37.39168000000001 248.88663000000003 -69.32813 259.04313 C -74.56947 260.70999 -79.66642 261.24489 -85.81797 261.46459000000004 C -159.50218 264.09617000000003 -155.66975000000002 -261.47442 -155.66975000000002 -261.47442 z" stroke-linecap="round" />
</g>
<g transform="matrix(1 0 0 1 1215.4718726176 1020.0715564189)" id="nZQI1--H5FrCDdT1nlAtj"  >
<path style="stroke: rgb(0,0,0); stroke-width: 1; stroke-dasharray: none; stroke-linecap: round; stroke-dashoffset: 0; stroke-linejoin: round; stroke-miterlimit: 10; fill: none; fill-rule: nonzero; opacity: 1;"  transform=" translate(-1215.4718726176, -1020.0715564189)" d="M 1215.4708726175888 1020.0715564188712 L 1215.4728726175888 1020.0715564188712" stroke-linecap="round" />
</g>
<g transform="matrix(1 0 0 1 1217.1667878718 1026.8512174358)" id="t2myeMGOcrvPn9tGvcGot"  >
<path style="stroke: rgb(0,0,0); stroke-width: 1; stroke-dasharray: none; stroke-linecap: round; stroke-dashoffset: 0; stroke-linejoin: round; stroke-miterlimit: 10; fill: none; fill-rule: nonzero; opacity: 1;"  transform=" translate(-1217.1667878718, -1026.8512174358)" d="M 1217.1657878718258 1026.8512174358202 L 1217.1677878718258 1026.8512174358202" stroke-linecap="round" />
</g>
<g transform="matrix(1 0 0 1 1681.7533145862 753.9382790142)" id="--jszAYyOA_dbS5XxbVM7"  >
<path style="stroke: rgb(0,0,0); stroke-width: 1; stroke-dasharray: none; stroke-linecap: round; stroke-dashoffset: 0; stroke-linejoin: round; stroke-miterlimit: 10; fill: none; fill-rule: nonzero; opacity: 1;"  transform=" translate(-1681.7533145862, -753.9382790142)" d="M 1681.752314586183 753.9382790142096 L 1681.754314586183 753.9382790142096" stroke-linecap="round" />
</g>
<g transform="matrix(1 0 0 1 1681.7533145862 753.9382790142)" id="dQrJnczIYuxP2IhlIgBRI"  >
<path style="stroke: rgb(0,0,0); stroke-width: 1; stroke-dasharray: none; stroke-linecap: round; stroke-dashoffset: 0; stroke-linejoin: round; stroke-miterlimit: 10; fill: none; fill-rule: nonzero; opacity: 1;"  transform=" translate(-1681.7533145862, -753.9382790142)" d="M 1681.752314586183 753.9382790142096 L 1681.754314586183 753.9382790142096" stroke-linecap="round" />
</g>
<g transform="matrix(1 0 0 1 1681.7533145862 753.9382790142)" id="lQW0Xot_v9PiGruv-nexV"  >
<path style="stroke: rgb(0,0,0); stroke-width: 1; stroke-dasharray: none; stroke-linecap: round; stroke-dashoffset: 0; stroke-linejoin: round; stroke-miterlimit: 10; fill: none; fill-rule: nonzero; opacity: 1;"  transform=" translate(-1681.7533145862, -753.9382790142)" d="M 1681.752314586183 753.9382790142096 L 1681.754314586183 753.9382790142096" stroke-linecap="round" />
</g>
<g transform="matrix(1 0 0 1 1162.6504227184 647.4574446796)" id="ovYewIhHLyM67He-LBrsR"  >
<path style="stroke: rgb(0,0,0); stroke-width: 1; stroke-dasharray: none; stroke-linecap: butt; stroke-dashoffset: 0; stroke-linejoin: miter; stroke-miterlimit: 4; fill: rgb(255,255,255); fill-opacity: 0; fill-rule: nonzero; opacity: 1;"  transform=" translate(0, 0)" d="M 0 0" stroke-linecap="round" />
</g>
</svg>